Coordinates
version=1
nRows=8
nColumns=42
inDegrees=yes

Units are S.I. units (second, meters, Newtons, ...)
If the header above contains a line with 'inDegrees', this indicates whether rotational values are in degrees (yes) or radians (no).

endheader
time	pelvis_tilt	pelvis_list	pelvis_rotation	pelvis_tx	pelvis_ty	pelvis_tz	hip_flexion_r	hip_adduction_r	hip_rotation_r	knee_angle_r	knee_adduction_r	knee_angle_r_beta	ankle_angle_r	subtalar_angle_r	mtp_angle_r	hip_flexion_l	hip_adduction_l	hip_rotation_l	knee_angle_l	knee_adduction_l	knee_angle_l_beta	ankle_angle_l	subtalar_angle_l	mtp_angle_l	lumbar_extension	lumbar_bending	lumbar_rotation	arm_flex_r	arm_add_r	arm_rot_r	elbow_flex_r	pro_sup_r	wrist_flex_r	wrist_dev_r	arm_flex_l	arm_add_l	arm_rot_l	elbow_flex_l	pro_sup_l	wrist_flex_l	wrist_dev_l
      1.11000000	      2.90280129	     -6.42557570	      3.44842434	      0.54258866	      0.97275176	     -0.22906209	      8.30786521	     10.06295251	     -9.08012616	     15.76318336	     -2.41351902	      0.27511945	      3.72637831	     -3.55256067	     -7.54856714	      0.74736512	     -9.50479851	    -12.19394104	     55.83202319	     -6.88761172	      0.97445263	     -9.19836794	    -18.09908436	     -7.54856714	    -14.62538074	      9.97357077	      3.19250895	     -6.43273104	     -9.14558213	    -11.09189351	     26.72248991	     90.00000001	      0.00000000	      0.00000000	      7.69151329	     -6.81588705	      5.31694380	     43.97679692	     90.00000001	      0.00000000	      0.00000000
      1.12000000	      2.97625034	     -5.98342983	      3.48097417	      0.55629653	      0.97502914	     -0.22827395	      6.86297082	      9.68272750	     -9.11042519	     14.99305889	     -2.31423811	      0.26167824	      4.05518480	     -3.14489048	     -7.54803656	      2.65696883	     -9.09472302	    -12.55816838	     56.86364428	     -7.37216139	      0.99245782	     -8.02937673	    -18.23637473	     -7.54803656	    -14.84515829	      9.41080889	      3.60528902	     -5.94079020	     -9.06473110	    -10.93356807	     27.06872693	     90.00000001	      0.00000000	      0.00000000	      7.33759151	     -6.90608659	      5.28078967	     43.86130284	     90.00000001	      0.00000000	      0.00000000
      1.13000000	      2.73627956	     -5.65086716	      3.54442845	      0.57021641	      0.97671834	     -0.22776908	      5.51198800	      9.41178116	     -8.56109160	     13.75100330	     -2.08875201	      0.24000028	      4.59622005	     -2.62657570	     -7.54651728	      4.87768536	     -8.69517698	    -12.72271496	     57.60509475	     -7.76955184	      1.00539857	     -6.54155703	    -17.88673268	     -7.54651728	    -14.63259258	      9.01376808	      3.80282840	     -5.50576840	     -9.14777309	    -10.32903523	     27.44455025	     90.00000001	      0.00000000	      0.00000000	      6.73250167	     -7.01538203	      5.20578799	     43.70587947	     90.00000001	      0.00000000	      0.00000000
      1.14000000	      2.59658204	     -5.19122012	      3.55799136	      0.58386696	      0.97829326	     -0.22723255	      4.26365679	      8.97736813	     -8.43295259	     12.88562127	     -1.94755089	      0.22489652	      4.93393268	     -2.19487423	     -7.54585457	      6.90167651	     -8.09994705	    -12.71717207	     57.97553015	     -7.94254754	      1.01186389	     -5.40470212	    -17.70545464	     -7.54585457	    -14.59406553	      8.45815719	      4.11446660	     -5.03201226	     -9.17206523	    -10.09342299	     27.91333799	     90.00000001	      0.00000000	      0.00000000	      6.22383142	     -7.17019648	      5.17366625	     43.53351222	     90.00000001	      0.00000000	      0.00000000
      1.15000000	      2.36845360	     -4.72700332	      3.55197794	      0.59743185	      0.97951008	     -0.22665781	      3.06827956	      8.51941356	     -8.06615966	     11.93209613	     -1.72150709	      0.20825436	      5.39270605	     -1.83129452	     -7.54483599	      8.93088190	     -7.49117248	    -12.32289029	     58.05371649	     -7.68559213	      1.01322850	     -4.33418325	    -17.12377806	     -7.54483599	    -14.46394745	      7.88272940	      4.39092091	     -4.55163830	     -9.24233943	     -9.52839115	     28.41044252	     90.00000001	      0.00000000	      0.00000000	      5.66662315	     -7.31800400	      5.09445003	     43.35958906	     90.00000001	      0.00000000	      0.00000000
      1.16000000	      2.22177555	     -4.32177184	      3.54755536	      0.61095760	      0.98051688	     -0.22602989	      1.82010385	      8.17205996	     -7.63454611	     11.01968481	     -1.56688083	      0.19232978	      5.62497908	     -1.88457058	     -7.54288143	     10.78286057	     -6.91995934	    -11.76493480	     57.79129605	     -7.26196104	      1.00864839	     -3.27279241	    -16.47731854	     -7.54288143	    -14.43144849	      7.36076710	      4.64115276	     -4.08081321	     -9.39834246	     -8.56118112	     29.00244808	     90.00000001	      0.00000000	      0.00000000	      5.09841046	     -7.49991607	      4.91096725	     43.18925212	     90.00000001	      0.00000000	      0.00000000
      1.17000000	      1.93858457	     -3.92530516	      3.44177785	      0.62438738	      0.98102771	     -0.22535087	      0.84542300	      7.81250062	     -7.34637059	     10.32029605	     -1.47107118	      0.18012315	      6.01785964	     -1.50264027	     -7.54215196	     12.70751224	     -6.32468294	    -11.29351886	     57.23716007	     -6.84341402	      0.99897690	     -2.48352422	    -15.77112561	     -7.54215196	    -14.26453130	      6.83386035	      4.99273795	     -3.58449874	     -9.47599538	     -8.27358514	     29.65218770	     90.00000001	      0.00000000	      0.00000000	      4.51370713	     -7.69687367	      4.82396805	     42.96232946	     90.00000001	      0.00000000	      0.00000000
      1.18000000	      1.90435968	     -3.56597194	      3.35870402	      0.63804149	      0.98153971	     -0.22455787	     -0.46747618	      7.51675203	     -6.84673514	      9.51561904	     -1.30584326	      0.16607888	      6.25143035	     -1.70714748	     -7.54006345	     14.19167919	     -5.79948995	    -10.52561624	     56.29866092	     -6.12076623	      0.98259700	     -1.58800084	    -14.78956643	     -7.54006345	    -14.35430328	      6.33293017	      5.28363441	     -3.10180717	     -9.67881972	     -7.17571896	     30.35547259	     90.00000001	      0.00000000	      0.00000000	      3.91654536	     -7.90769494	      4.50759387	     42.74137324	     90.00000001	      0.00000000	      0.00000000
